HIERARCHY
ROOT Hips
{
	OFFSET 0.00000 0.00000 0.00000
	CHANNELS 6 Xposition Yposition Zposition Zrotation Yrotation Xrotation 
	JOINT LHipJoint
	{
		OFFSET 0 0 0
		CHANNELS 3 Zrotation Yrotation Xrotation
		JOINT LeftHip
		{
			OFFSET 1.28366 -1.58472 0.87544
			CHANNELS 3 Zrotation Yrotation Xrotation
			JOINT LeftKnee
			{
				OFFSET 2.18587 -6.00562 0.00000
				CHANNELS 3 Zrotation Yrotation Xrotation
				JOINT LeftAnkle
				{
					OFFSET 2.39085 -6.56880 0.00000
					CHANNELS 3 Zrotation Yrotation Xrotation
					JOINT LeftToe
					{
						OFFSET 0.12003 -0.32979 2.03101
						CHANNELS 3 Zrotation Yrotation Xrotation
						End Site
						{
							OFFSET 0.00000 -0.00000 1.04074
						}
					}
				}
			}
		}
	}
	JOINT RHipJoint
	{
		OFFSET 0 0 0
		CHANNELS 3 Zrotation Yrotation Xrotation
		JOINT RightHip
		{
			OFFSET -1.21795 -1.58472 0.87544
			CHANNELS 3 Zrotation Yrotation Xrotation
			JOINT RightKnee
			{
				OFFSET -2.22714 -6.11902 0.00000
				CHANNELS 3 Zrotation Yrotation Xrotation
				JOINT RightAnkle
				{
					OFFSET -2.40306 -6.60235 0.00000
					CHANNELS 3 Zrotation Yrotation Xrotation
					JOINT RightToe
					{
						OFFSET -0.15519 -0.42640 1.91430
						CHANNELS 3 Zrotation Yrotation Xrotation
						End Site
						{
							OFFSET -0.00000 -0.00000 0.99082
						}
					}
				}
			}
		}
	}
	JOINT lowerback
	{
		OFFSET 0 0 0
		CHANNELS 3 Zrotation Yrotation Xrotation
		JOINT Chest
		{
			OFFSET 0.01180 1.76430 -0.06387
			CHANNELS 3 Zrotation Yrotation Xrotation
			JOINT Chest2
			{
				OFFSET -0.00388 1.74651 0.09536
				CHANNELS 3 Zrotation Yrotation Xrotation
				JOINT lowerneck
				{
					OFFSET 0 0 0
					CHANNELS 3 Zrotation Yrotation Xrotation
					JOINT Neck
					{
						OFFSET 0.04111 1.46174 0.14397
						CHANNELS 3 Zrotation Yrotation Xrotation
						JOINT Head
						{
							OFFSET 0.00502 1.44580 -0.31711
							CHANNELS 3 Zrotation Yrotation Xrotation
							End Site
							{
								OFFSET -0.00395 1.49251 -0.12327
							}
						}
					}
				}
				JOINT LeftCollar
				{
					OFFSET 0 0 0
					CHANNELS 3 Zrotation Yrotation Xrotation
					JOINT LeftShoulder
					{
						OFFSET 2.70917 1.34870 -0.15417
CHANNELS 3 Zrotation Xrotation Yrotation
						JOINT LeftElbow
						{
OFFSET 0 -4.466100 -0.000000
CHANNELS 3 Zrotation Xrotation Yrotation
							JOINT LeftWrist
							{
OFFSET 0 -3.414140 0.000000
CHANNELS 3 Zrotation Xrotation Yrotation
								JOINT lhand
								{
									OFFSET 0 0 0
CHANNELS 3 Zrotation Xrotation Yrotation
									JOINT LFingers
									{
OFFSET 0 -0.328300 0.000000
CHANNELS 3 Zrotation Xrotation Yrotation
										End Site
										{
OFFSET 0 -0.264680 0.000000
										}
									}
								}
								JOINT LThumb
								{
OFFSET 0 0.000000 0.000000
CHANNELS 3 Zrotation Xrotation Yrotation
									End Site
									{
OFFSET 0 -0.268720 0.268720
									}
								}
							}
						}
					}
				}
				JOINT RightCollar
				{
					OFFSET 0 0 0
					CHANNELS 3 Zrotation Yrotation Xrotation
					JOINT RightShoulder
					{
						OFFSET -3.06316 1.13725 -0.10883
CHANNELS 3 Zrotation Xrotation Yrotation
						JOINT RightElbow
						{
OFFSET 0 -4.404310 0.000000
CHANNELS 3 Zrotation Xrotation Yrotation
							JOINT RightWrist
							{
OFFSET 0 -3.046880 0.000000
CHANNELS 3 Zrotation Xrotation Yrotation
								JOINT rhand
								{
									OFFSET 0 0 0
CHANNELS 3 Zrotation Xrotation Yrotation
									JOINT RFingers
									{
OFFSET 0 -0.500490 0.000000
CHANNELS 3 Zrotation Xrotation Yrotation
										End Site
										{
OFFSET 0 -0.403510 0.000000
										}
									}
								}
								JOINT RThumb
								{
OFFSET 0 0.000000 0.000000
CHANNELS 3 Zrotation Xrotation Yrotation
									End Site
									{
OFFSET 0 -0.409670 0.409670
									}
								}
							}
						}
					}
				}
			}
		}
	}
}
MOTION
Frames: 11
Frame Time: 0.008333333333333333
4.526800 13.377200 6.394700 -176.872000 -0.496200 -176.366000 0.000000 0.000000 0.000000 -11.253500 27.428000 -46.351900 14.703200 19.313600 74.341100 2.959000 -5.861500 -31.348100 0.022800 0.975300 2.680900 0.000000 0.000000 0.000000 19.434800 -26.199000 -47.676300 -14.832700 -19.347400 74.732200 -3.311700 7.958900 -33.032100 -0.555600 -4.774700 13.267200 1.018400 2.916700 4.700200 0.879200 3.858300 -5.731600 -0.093900 1.758200 -8.663100 1.603200 2.845100 -20.058600 5.814700 1.202200 24.260000 1.994600 1.194500 11.189400 -0.000000 0.000000 0.000000 88.915800 0.656500 -34.391000 18.575400 -28.887700 4.824000 2.852900 -14.811400 0.387200 0.000000 0.000000 0.000000 -7.125000 0.000000 0.000000 -18.360900 29.322500 -7.364200 -0.000000 0.000000 0.000000 -82.731800 5.201900 34.226400 -22.092200 -33.081100 -6.636100 -5.035200 -9.537500 -14.758400 0.000000 0.000000 0.000000 7.125000 0.000000 -0.000000 15.189000 15.498300 10.976100
4.514581 13.414536 6.390289 -176.759679 -0.432158 -176.344733 0.000000 0.000000 0.000000 -11.209908 27.115651 -46.097599 14.561131 19.275445 73.910982 2.909540 -5.480291 -31.123820 0.031327 1.142773 3.141604 0.000000 0.000000 0.000000 19.536869 -25.965006 -47.344475 -14.633697 -19.295110 74.130771 -3.264856 7.847912 -32.794549 -0.574845 -4.855384 13.496526 0.996202 2.900157 4.765316 0.839826 3.826580 -5.849171 -0.125168 1.737044 -8.828548 1.456064 2.946113 -19.946770 6.950297 1.030840 24.179372 2.402430 1.227229 11.140027 0.000000 0.000000 0.000000 89.201024 0.472253 -34.254147 18.672011 -29.009113 4.870803 2.539797 -14.950084 0.647216 0.000000 0.000000 0.000000 -7.125000 0.000000 0.000000 -18.549649 29.067760 -7.566978 0.000000 0.000000 0.000000 -82.744074 5.368666 34.347211 -22.245790 -33.253738 -6.720114 -5.682226 -10.914081 -15.281735 0.000000 0.000000 0.000000 7.125000 0.000000 0.000000 14.732359 14.959092 10.799043
4.511011 13.454267 6.390311 -176.688626 -0.400743 -176.252466 0.000000 0.000000 0.000000 -11.265331 26.980287 -45.948612 14.384166 19.226453 73.374260 2.867679 -5.249926 -30.921433 0.033573 1.182214 3.250359 0.000000 0.000000 0.000000 19.705490 -25.882535 -47.169507 -14.430902 -19.239537 73.516347 -3.217295 7.824372 -32.543687 -0.583653 -4.891524 13.599525 0.974383 2.881404 4.790143 0.666058 3.787254 -5.900243 -0.294055 1.711966 -8.887900 1.579352 3.037278 -20.122929 8.167487 0.706815 24.103549 2.779144 1.225611 11.164698 0.000000 0.000000 0.000000 89.535109 0.151034 -33.627267 18.610022 -28.931245 4.840769 2.766811 -15.000985 0.452176 0.000000 0.000000 0.000000 -7.125000 0.000000 0.000000 -18.414105 29.258561 -7.417442 0.000000 0.000000 0.000000 -82.705042 5.463541 34.502702 -22.297030 -33.311071 -6.748238 -5.465879 -10.927328 -15.463719 0.000000 0.000000 0.000000 7.125000 0.000000 0.000000 14.866038 14.793770 10.958766
4.512800 13.492893 6.395364 -176.626279 -0.268446 -176.167477 0.000000 0.000000 0.000000 -11.324586 27.005551 -45.817275 14.198137 19.172987 72.808547 2.824423 -5.076225 -30.701641 0.031648 1.148225 3.156584 0.000000 0.000000 0.000000 19.875183 -25.681059 -46.991470 -14.241841 -19.185763 72.941643 -3.167415 7.758888 -32.282567 -0.585037 -4.897578 13.616535 0.777797 2.859207 4.863641 0.604504 3.739054 -5.903396 -0.247914 1.699639 -8.943733 1.693629 3.122881 -20.309201 9.127107 0.488146 23.833721 3.074408 1.242261 11.117672 0.000000 0.000000 0.000000 89.544841 0.169372 -33.123326 18.581381 -28.895165 4.826929 3.955913 -14.845452 0.357369 0.000000 0.000000 0.000000 -7.125000 0.000000 0.000000 -17.535715 29.377712 -6.977941 0.000000 0.000000 0.000000 -82.747628 5.295215 34.264890 -22.271181 -33.282137 -6.734064 -5.466578 -11.123561 -15.519401 0.000000 0.000000 0.000000 7.125000 0.000000 0.000000 14.862770 14.739835 10.974015
4.513432 13.526521 6.401253 -176.547038 -0.192888 -175.963543 0.000000 0.000000 0.000000 -11.405288 26.909435 -45.883828 14.057996 19.131515 72.381615 2.787409 -4.933939 -30.512050 0.034204 1.194144 3.283059 0.000000 0.000000 0.000000 20.107499 -25.479593 -47.011123 -14.083329 -19.139130 72.458724 -3.108919 7.884509 -31.957618 -0.648768 -5.152293 14.343401 0.660880 2.813218 4.890315 0.630546 3.663764 -5.974469 -0.149023 1.667643 -9.047155 1.654825 3.122116 -20.558586 9.489899 0.385334 23.731244 3.201980 1.238367 11.134947 0.000000 0.000000 0.000000 89.366948 0.382125 -32.995548 18.682928 -29.022775 4.876032 4.967144 -15.449573 0.393112 0.000000 0.000000 0.000000 -7.125000 0.000000 0.000000 -16.765369 29.366332 -6.650196 0.000000 0.000000 0.000000 -83.109739 5.109784 34.382463 -22.381659 -33.405673 -6.794815 -5.296134 -11.193429 -15.433815 0.000000 0.000000 0.000000 7.125000 0.000000 0.000000 14.979488 14.831424 11.036132
4.518093 13.541893 6.403827 -176.496599 -0.126113 -175.817130 0.000000 0.000000 0.000000 -11.437780 27.025477 -46.042731 13.999639 19.113980 72.203478 2.753279 -4.943697 -30.314096 0.028647 1.092712 3.004075 0.000000 0.000000 0.000000 20.258623 -25.448783 -47.099977 -14.013466 -19.118107 72.245585 -3.079779 8.042455 -31.787790 -0.639746 -5.117125 14.242849 0.647188 2.504481 4.884721 0.620806 3.752794 -6.013461 -0.198262 1.924380 -9.090321 1.485013 2.980642 -20.797904 9.555434 0.227889 23.682797 3.235861 1.167764 11.169224 0.000000 0.000000 0.000000 89.465234 0.543812 -33.114290 18.829826 -29.206679 4.947520 5.541342 -16.050675 0.205491 0.000000 0.000000 0.000000 -7.125000 0.000000 0.000000 -16.359989 29.559542 -6.397828 0.000000 0.000000 0.000000 -83.365118 5.261183 34.515609 -22.527371 -33.567892 -6.875189 -5.109817 -11.066813 -15.325640 0.000000 0.000000 0.000000 7.125000 0.000000 0.000000 15.108176 14.945580 11.099602
4.524128 13.544084 6.403552 -176.459840 -0.181175 -175.740359 0.000000 0.000000 0.000000 -11.405395 27.034508 -46.156569 13.995128 19.112548 72.189785 2.739640 -5.012597 -30.224322 0.024680 1.013787 2.786607 0.000000 0.000000 0.000000 20.357017 -25.566049 -47.203205 -14.001832 -19.114600 72.209996 -3.073996 8.153870 -31.748225 -0.599111 -4.955095 13.780487 0.676375 2.823303 4.880170 0.625194 3.672966 -6.042384 -0.165313 1.667455 -9.114151 1.277204 2.881320 -21.207656 9.387534 0.176895 23.976468 3.222960 1.125508 11.357443 0.000000 0.000000 0.000000 89.495773 0.615061 -33.084283 18.739129 -29.093229 4.903331 5.140472 -16.400072 -0.066319 0.000000 0.000000 0.000000 -7.125000 0.000000 0.000000 -16.709171 29.812022 -6.440018 0.000000 0.000000 0.000000 -83.474606 5.564845 34.519533 -22.655186 -33.709530 -6.945957 -5.181953 -11.243197 -15.278500 0.000000 0.000000 0.000000 7.125000 0.000000 0.000000 15.063023 14.987699 11.049941
4.530950 13.546275 6.401481 -176.517057 -0.218870 -175.753244 0.000000 0.000000 0.000000 -11.411788 26.851118 -46.057291 13.979752 19.107876 72.142556 2.732094 -4.963150 -30.188403 0.029793 1.114740 3.064564 0.000000 0.000000 0.000000 20.281305 -25.447252 -47.118853 -14.000594 -19.114225 72.206264 -3.075812 8.108288 -31.761291 -0.602608 -4.969051 13.820328 0.603304 2.784738 4.789668 0.665048 3.617845 -5.990362 -0.070005 1.649256 -9.011072 1.329404 2.927845 -21.415652 8.918008 0.365521 24.154888 3.082151 1.174814 11.452720 0.000000 0.000000 0.000000 89.417203 0.932929 -33.260043 18.689329 -29.030792 4.879183 4.873905 -16.408366 -0.194982 0.000000 0.000000 0.000000 -7.125000 0.000000 0.000000 -16.933544 29.929026 -6.484077 0.000000 0.000000 0.000000 -83.217670 5.792222 34.207913 -22.618163 -33.668620 -6.925410 -5.488836 -11.083532 -15.459251 0.000000 0.000000 0.000000 7.125000 0.000000 0.000000 14.851043 14.796811 10.945924
4.535885 13.552578 6.400079 -176.563427 -0.203201 -175.876778 0.000000 0.000000 0.000000 -11.369082 26.704548 -45.770163 13.938875 19.095394 72.017661 2.723722 -4.806407 -30.164495 0.030921 1.134484 3.118980 0.000000 0.000000 0.000000 20.167939 -25.264055 -46.827613 -13.965476 -19.103509 72.098921 -3.077608 7.899604 -31.786609 -0.589585 -4.915963 13.669083 0.646989 2.805091 4.668113 0.706104 3.654347 -5.896520 -0.047362 1.670063 -8.836607 1.351742 3.031588 -21.435976 8.552250 0.619537 24.296135 2.988475 1.255143 11.495395 0.000000 0.000000 0.000000 89.018824 0.963874 -32.921927 18.588504 -28.904157 4.830355 4.770394 -15.831017 -0.183589 0.000000 0.000000 0.000000 -7.125000 0.000000 0.000000 -17.010358 29.915539 -6.521753 0.000000 0.000000 0.000000 -82.889509 6.056728 33.977504 -22.419083 -33.447392 -6.815407 -5.468563 -10.453105 -15.578663 0.000000 0.000000 0.000000 7.125000 0.000000 0.000000 14.858526 14.682123 10.989649
4.539644 13.567449 6.401568 -176.625885 -0.167196 -175.979846 0.000000 0.000000 0.000000 -11.390123 26.532536 -45.481969 13.865234 19.072666 71.792435 2.709811 -4.581446 -30.120550 0.033848 1.187653 3.265315 0.000000 0.000000 0.000000 20.071373 -25.011926 -46.519980 -13.890727 -19.080538 71.870412 -3.067819 7.613555 -31.757069 -0.603449 -4.972468 13.830021 0.732060 2.829189 4.503729 0.735631 3.693750 -5.843973 -0.058609 1.686969 -8.678680 1.500937 3.221155 -21.542493 8.151825 0.911474 24.752037 2.878859 1.358354 11.677888 0.000000 0.000000 0.000000 88.748613 0.974998 -32.998983 18.520080 -28.817956 4.797328 4.648661 -15.594625 -0.150996 0.000000 0.000000 0.000000 -7.125000 0.000000 0.000000 -17.097387 29.881328 -6.572639 0.000000 0.000000 0.000000 -82.645679 6.156571 33.877272 -22.309456 -33.325043 -6.755058 -5.316689 -10.378052 -15.350393 0.000000 0.000000 0.000000 7.125000 0.000000 0.000000 14.970301 14.911211 11.002222
4.543827 13.596362 6.412041 -176.721274 -0.033586 -176.179212 0.000000 0.000000 0.000000 -11.436720 26.387017 -44.961773 13.712109 19.024383 71.323371 2.670077 -4.142970 -29.964097 0.024085 1.001484 2.752974 0.000000 0.000000 0.000000 19.904910 -24.571209 -45.991892 -13.746861 -19.035476 71.429976 -3.025223 7.192875 -31.562161 -0.637724 -5.109255 14.220483 0.722276 2.580423 4.422915 0.805940 3.849324 -5.733688 -0.021729 1.974608 -8.520548 1.835335 3.502445 -21.572657 7.613868 1.322519 25.157426 2.701996 1.512520 11.828317 0.000000 0.000000 0.000000 88.429017 0.956646 -32.689533 18.486538 -28.775664 4.781132 4.674577 -15.448670 -0.139980 0.000000 0.000000 0.000000 -7.125000 0.000000 0.000000 -17.075784 29.871333 -6.567968 0.000000 0.000000 0.000000 -82.469759 6.164339 33.619021 -22.314508 -33.330661 -6.757867 -5.425019 -10.411889 -15.506059 0.000000 0.000000 0.000000 7.125000 0.000000 0.000000 14.890869 14.754834 10.991299
